<?xml version="1.0" standalone="no"?>
<!DOCTYPE svg PUBLIC "-//W3C//DTD SVG 20010904//EN"
 "http://www.w3.org/TR/2001/REC-SVG-20010904/DTD/svg10.dtd">
<svg version="1.0" xmlns="http://www.w3.org/2000/svg"
 width="512.000000pt" height="512.000000pt" viewBox="0 0 512.000000 512.000000"
 preserveAspectRatio="xMidYMid meet">
<metadata>
Created by potrace 1.14, written by Peter Selinger 2001-2017
</metadata>
<g transform="translate(0.000000,512.000000) scale(0.100000,-0.100000)"
fill="#000000" stroke="none">
<path d="M2348 5108 c-2 -7 -3 -202 -3 -433 l1 -420 55 4 c82 7 257 6 315 -1
51 -7 52 -6 55 20 2 15 4 209 4 432 l-1 405 -211 3 c-163 2 -212 0 -215 -10z"/>
<path d="M750 4370 l-151 -152 307 -306 306 -306 30 35 c54 64 163 174 218
220 l54 47 -307 307 -306 306 -151 -151z"/>
<path d="M3911 4214 l-305 -306 54 -46 c71 -62 133 -124 197 -197 l51 -59 307
306 306 307 -151 151 c-82 82 -151 150 -152 150 -2 -1 -140 -138 -307 -306z"/>
<path d="M2415 3833 c-563 -75 -988 -466 -1111 -1023 -25 -113 -27 -350 -3
-476 77 -407 324 -737 692 -921 79 -40 209 -86 289 -102 29 -6 64 -14 78 -17
14 -3 93 -7 175 -9 115 -2 173 1 250 16 474 89 850 419 994 871 44 140 59 250
56 413 -1 77 -5 149 -8 160 -6 25 -19 104 -18 107 1 2 -14 49 -33 106 -85 251
-238 465 -446 624 -75 56 -232 148 -254 148 -7 0 -16 4 -22 9 -13 13 -157 58
-244 77 -71 15 -326 26 -395 17z"/>
<path d="M0 2560 l0 -215 430 1 c236 0 431 2 433 5 2 2 1 33 -3 69 -8 78 -5
273 5 318 6 30 5 32 -22 33 -15 1 -211 2 -435 3 l-408 1 0 -215z"/>
<path d="M4261 2772 c-5 -2 -6 -29 -3 -60 7 -66 8 -220 1 -306 l-4 -60 420 -1
c231 0 426 1 433 3 9 3 12 55 12 216 l0 211 -425 0 c-234 0 -429 -1 -434 -3z"/>
<path d="M905 1207 l-306 -306 151 -151 152 -151 306 307 305 306 -53 47 c-68
58 -141 131 -201 201 l-47 54 -307 -307z"/>
<path d="M3868 1468 c-47 -57 -152 -163 -213 -215 l-49 -41 301 -301 c165
-166 306 -301 312 -301 7 0 77 66 157 146 l145 145 -304 305 c-168 167 -307
304 -310 304 -2 0 -20 -19 -39 -42z"/>
<path d="M2348 857 c-2 -6 -3 -201 -3 -432 l1 -420 212 -3 c197 -2 212 -1 213
15 3 54 4 830 1 840 -3 8 -17 10 -45 6 -54 -9 -316 -8 -349 0 -17 5 -27 2 -30
-6z"/>
</g>
</svg>
